<?xml version="1.0" encoding="iso-8859-1"?>
<!-- Generator: Adobe Illustrator 18.1.1, SVG Export Plug-In . SVG Version: 6.00 Build 0)  -->
<svg version="1.1" id="Capa_1" xmlns="http://www.w3.org/2000/svg" xmlns:xlink="http://www.w3.org/1999/xlink" x="0px" y="0px"
	 viewBox="0 0 18.269 18.269" style="enable-background:new 0 0 18.269 18.269;" xml:space="preserve">
<g>
	<path style="fill:#030104;" d="M9.094,0l-8.43,1.824v12.039L0.785,13.9v1.781l8.324,2.588l8.375-2.588V13.9l0.121-0.037V1.824
		L9.094,0z M1.328,2.246l0.006,0.002l7.761-1.683l7.796,1.67v0.021L9.109,4.317L1.334,2.248H1.328V2.246z M0.882,4.563l8.229,2.345
		l8.279-2.283v1.106L9.11,8.043L0.882,5.729V4.563z M17.287,14.57c-0.213,0.068-8.045,2.494-8.139,2.523
		c-0.088-0.029-7.33-2.33-8.081-2.568v-0.492l8.103,2.545l8.118-2.549L17.287,14.57L17.287,14.57z M9.049,18.007l-7.981-2.539
		v-0.609l8.08,2.568l8.141-2.52v0.561L9.049,18.007z"/>
</g>
<g>
</g>
<g>
</g>
<g>
</g>
<g>
</g>
<g>
</g>
<g>
</g>
<g>
</g>
<g>
</g>
<g>
</g>
<g>
</g>
<g>
</g>
<g>
</g>
<g>
</g>
<g>
</g>
<g>
</g>
</svg>
